<svg width="100%" height="100%" id="svg" viewBox="0 0 1440 690" xmlns="http://www.w3.org/2000/svg" class="transition duration-300 ease-in-out delay-150"><defs><linearGradient id="gradient" x1="0%" y1="50%" x2="100%" y2="50%"><stop offset="5%" stop-color="#d9d9d9"></stop><stop offset="95%" stop-color="#0d0d0d"></stop></linearGradient></defs><path d="M 0,700 C 0,700 0,175 0,175 C 81.58851674641147,184.07177033492823 163.17703349282294,193.14354066985646 249,200 C 334.82296650717706,206.85645933014354 424.88038277511964,211.49760765550238 530,206 C 635.1196172248804,200.50239234449762 755.3014354066985,184.86602870813397 848,176 C 940.6985645933015,167.13397129186603 1005.9138755980862,165.03827751196172 1100,166 C 1194.0861244019138,166.96172248803828 1317.043062200957,170.98086124401914 1440,175 C 1440,175 1440,700 1440,700 Z" stroke="none" stroke-width="0" fill="url(#gradient)" fill-opacity="0.4" class="transition-all duration-300 ease-in-out delay-150 path-0"></path><defs><linearGradient id="gradient" x1="0%" y1="50%" x2="100%" y2="50%"><stop offset="5%" stop-color="#d9d9d9"></stop><stop offset="95%" stop-color="#0d0d0d"></stop></linearGradient></defs><path d="M 0,700 C 0,700 0,350 0,350 C 99.68421052631578,320.0861244019139 199.36842105263156,290.17224880382776 278,294 C 356.63157894736844,297.82775119617224 414.2105263157895,335.3971291866029 528,357 C 641.7894736842105,378.6028708133971 811.7894736842105,384.2392344497608 911,367 C 1010.2105263157895,349.7607655502392 1038.6315789473686,309.64593301435406 1115,303 C 1191.3684210526314,296.35406698564594 1315.6842105263158,323.17703349282294 1440,350 C 1440,350 1440,700 1440,700 Z" stroke="none" stroke-width="0" fill="url(#gradient)" fill-opacity="0.53" class="transition-all duration-300 ease-in-out delay-150 path-1"></path><defs><linearGradient id="gradient" x1="0%" y1="50%" x2="100%" y2="50%"><stop offset="5%" stop-color="#d9d9d9"></stop><stop offset="95%" stop-color="#0d0d0d"></stop></linearGradient></defs><path d="M 0,700 C 0,700 0,525 0,525 C 102.79425837320576,543.4114832535886 205.58851674641153,561.8229665071771 303,551 C 400.4114832535885,540.1770334928229 492.4401913875597,500.11961722488036 583,508 C 673.5598086124403,515.8803827751196 762.6507177033493,571.6985645933015 867,576 C 971.3492822966507,580.3014354066985 1090.956937799043,533.0861244019138 1189,516 C 1287.043062200957,498.9138755980861 1363.5215311004786,511.9569377990431 1440,525 C 1440,525 1440,700 1440,700 Z" stroke="none" stroke-width="0" fill="url(#gradient)" fill-opacity="1" class="transition-all duration-300 ease-in-out delay-150 path-2"></path></svg>